<?xml version="1.0" encoding="UTF-8"?>
<svg version="1.1" xmlns="http://www.w3.org/2000/svg" width="1254" height="1254">
<path d="M0 0 C4.03021982 1.43730062 7.56619262 3.79104973 11.203125 6.015625 C13.67390834 7.47799152 16.03748044 8.67722481 18.6796875 9.77734375 C28.4930285 13.96531568 37.16334899 19.7787317 45.1796875 26.77734375 C45.82808594 27.34195313 46.47648437 27.9065625 47.14453125 28.48828125 C53.441268 34.35788706 59.55116001 42.85939012 60.48046875 51.609375 C60.51984746 61.6246948 58.35380095 67.20736496 52.71484375 75.3125 C50.49819461 78.87154734 49.06672414 82.64726107 47.5234375 86.53515625 C43.83121114 95.44372566 39.20506274 103.95851981 34.34375 112.27734375 C33.02553949 115.10839989 32.56555247 117.69042397 32.1796875 120.77734375 C47.24215686 117.0954068 60.24066801 108.01745663 73.26220703 99.96191406 C77.08405613 97.6008736 80.91240975 95.25049498 84.7421875 92.90234375 C85.51643066 92.42571289 86.29067383 91.94908203 87.08837891 91.45800781 C87.8210498 91.0090918 88.5537207 90.56017578 89.30859375 90.09765625 C89.95900635 89.69820801 90.60941895 89.29875977 91.27954102 88.88720703 C95.69895099 86.30585823 99.26120913 85.36536952 104.3671875 84.58984375 C111.50518186 83.31987272 116.04905214 80.86583837 121.1796875 75.77734375 C121.75589844 75.20628906 122.33210938 74.63523437 122.92578125 74.046875 C124.05343383 72.9088053 125.17456382 71.76423549 126.2890625 70.61328125 C136.56400243 60.63555033 136.56400243 60.63555033 142.1796875 58.77734375 C163.17407648 59.87406556 187.78591049 75.0000335 202.1796875 89.77734375 C205.64098311 94.21263184 206.92560831 98.69068587 206.52612305 104.31396484 C205.09824016 114.46712784 199.31493829 120.27983321 192.0546875 127.02734375 C184.97162314 133.8426469 178.77193783 140.42584414 173.34765625 148.60546875 C171.05109159 151.96548768 168.54457711 154.97213683 165.8671875 158.02734375 C160.79088656 163.85615939 156.29480945 170.02820585 151.81420898 176.32177734 C148.36684869 181.15809505 144.80845993 185.85172636 141.05078125 190.453125 C138.17268317 194.02821552 135.45464341 197.7198044 132.7109375 201.3984375 C123.04883617 214.3288295 113.11511699 227.056693 103.1796875 239.77734375 C102.41712646 240.75477539 102.41712646 240.75477539 101.63916016 241.75195312 C100.21678141 243.57418411 98.79228679 245.39474 97.3671875 247.21484375 C96.92769775 247.7783252 96.48820801 248.34180664 96.03540039 248.92236328 C93.90966032 251.634088 91.75078338 254.3009574 89.5 256.91015625 C88.25863281 258.36035156 88.25863281 258.36035156 86.9921875 259.83984375 C86.25613281 260.67644531 85.52007813 261.51304687 84.76171875 262.375 C82.95754655 265.1146689 82.83016317 266.56286588 83.1796875 269.77734375 C91.38330363 273.97284794 99.54909729 278.04549729 108.1015625 281.4921875 C112.41041879 283.29118968 116.62365018 285.27918754 120.84204102 287.27954102 C124.91691888 289.20805415 129.03308215 291.00922348 133.1796875 292.77734375 C134.74427448 293.50202152 136.30686009 294.23103952 137.8671875 294.96484375 C150.71794752 300.79968815 163.73008629 305.93463809 177.3359375 309.703125 C180.63312348 310.62459466 183.86659946 311.64442161 187.1171875 312.71484375 C193.76537035 314.77923513 200.52456311 316.33397406 207.3046875 317.90234375 C208.40159912 318.1562085 209.49851074 318.41007324 210.62866211 318.67163086 C216.46887973 320.00025072 222.30971365 321.2155864 228.20996094 322.24511719 C230.35033718 322.62870977 232.48600636 323.03890433 234.61816406 323.46582031 C245.35267359 325.5929604 256.12441556 326.9761261 266.98632812 328.28067017 C347.8657996 338.07768523 347.8657996 338.07768523 379.1796875 360.77734375 C381.19868355 362.09266826 383.21965421 363.40496487 385.2421875 364.71484375 C398.92265185 373.85262518 398.92265185 373.85262518 401.1796875 379.77734375 C401.86042585 385.01744595 401.83702008 389.43833295 399.4921875 394.21484375 C395.74961728 398.36201615 391.68026069 401.21507621 386.75 403.80078125 C385.71496338 404.34404053 384.67992676 404.8872998 383.61352539 405.44702148 C382.52160889 406.00977783 381.42969238 406.57253418 380.3046875 407.15234375 C378.61557251 408.02451538 378.61557251 408.02451538 376.89233398 408.91430664 C368.79950452 413.04653061 360.7647763 416.77024238 352.1796875 419.77734375 C351.0956665 420.15729492 351.0956665 420.15729492 349.98974609 420.54492188 C330.4241574 427.35248365 312.30465044 431.14438156 291.5402832 431.09301758 C288.88125426 431.08986045 286.22334541 431.1134005 283.56445312 431.13867188 C255.62333108 431.24227563 234.62575161 424.12306481 212.625 407.28515625 C207.53691566 403.5006053 202.14894818 400.15236552 196.81933594 396.72241211 C188.82301591 391.57044587 180.96810414 386.23764533 173.1796875 380.77734375 C172.57431152 380.35356445 171.96893555 379.92978516 171.34521484 379.49316406 C165.1143356 375.11961462 158.98783414 370.65840551 152.9921875 365.96484375 C147.02609246 361.30198605 140.80982042 357.05089627 134.54248047 352.80541992 C129.004293 349.04654115 123.53579418 345.20655991 118.1171875 341.27734375 C117.00984253 340.47550659 117.00984253 340.47550659 115.88012695 339.6574707 C112.13575628 336.94027696 108.4042706 334.20657027 104.68359375 331.45703125 C94.50674387 323.96886364 84.09529487 317.14004146 73.1796875 310.77734375 C72.54063477 310.39755371 71.90158203 310.01776367 71.24316406 309.62646484 C69.50324135 308.5964787 67.74808547 307.59235301 65.9921875 306.58984375 C65.02925781 306.03941406 64.06632812 305.48898437 63.07421875 304.921875 C59.45796739 303.49196724 57.03647936 303.24325907 53.1796875 303.77734375 C50.49708049 305.75469326 50.49708049 305.75469326 48.3046875 308.58984375 C47.45261719 309.5953125 46.60054687 310.60078125 45.72265625 311.63671875 C44.8729915 312.68196427 44.02529032 313.72880941 43.1796875 314.77734375 C42.41269531 315.710625 41.64570312 316.64390625 40.85546875 317.60546875 C39.36217095 319.4297418 37.8751835 321.25919844 36.39453125 323.09375 C33.51543471 326.58217914 30.47479994 329.90644069 27.42578125 333.24609375 C25.10746539 335.85873493 22.92261682 338.54893307 20.7421875 341.27734375 C17.02467613 345.88059262 13.01196757 349.99478838 8.77488708 354.11688232 C6.36943195 356.58282777 4.25316312 359.10523652 2.12915039 361.81347656 C-3.18297465 368.36759178 -9.03353748 374.26243274 -15.01171875 380.19921875 C-16.16833033 381.35463389 -17.3245677 382.51042372 -18.48045349 383.66656494 C-20.8851677 386.06972848 -23.29315933 388.46953866 -25.70385742 390.86669922 C-28.77393898 393.91974517 -31.83734963 396.97937943 -34.89854527 400.04133224 C-37.27903553 402.42154907 -39.66213438 404.79913975 -42.04609489 407.17588043 C-43.17604807 408.30268174 -44.30542326 409.430063 -45.43417549 410.55806732 C-50.86416468 415.98051407 -56.28919746 421.36163711 -62.15245056 426.32232666 C-63.96008543 427.8992795 -65.64102913 429.56504029 -67.3203125 431.27734375 C-69.57829193 433.57060411 -71.88027754 435.74162403 -74.3203125 437.83984375 C-78.4254149 441.3756839 -82.3703116 445.07065052 -86.3203125 448.77734375 C-90.73917734 452.92130721 -95.17281168 457.02167388 -99.76953125 460.96875 C-101.93268926 462.87644935 -104.03369939 464.84451723 -106.13525391 466.81958008 C-129.07890866 488.31674201 -154.89109879 507.0679581 -180.8203125 524.77734375 C-182.94584445 526.25574592 -185.07083412 527.73492799 -187.1953125 529.21484375 C-193.78301982 533.77372817 -200.42704832 538.24394722 -207.11572266 542.65332031 C-208.60676843 543.63653068 -210.09466715 544.62451021 -211.58203125 545.61328125 C-230.32184166 557.83863996 -257.12616335 575.12093637 -280.41796875 573.31640625 C-288.13383499 571.58504114 -292.17493093 566.78073294 -296.34375 560.30859375 C-300.80701604 552.65728053 -302.04691202 545.67779313 -300.8203125 536.77734375 C-295.20868017 519.38745015 -281.15564154 500.55729429 -264.8203125 491.77734375 C-261.96484375 492.04296875 -261.96484375 492.04296875 -259.8203125 492.77734375 C-259.3253125 494.26234375 -259.3253125 494.26234375 -258.8203125 495.77734375 C-260.25390625 498.5546875 -260.25390625 498.5546875 -262.2578125 501.71484375 C-265.26909282 506.3529967 -265.26909282 506.3529967 -265.8203125 511.77734375 C-230.20976285 509.72288896 -186.152144 471.9059721 -159.8203125 449.77734375 C-158.02893038 448.33948917 -156.23725638 446.90199817 -154.4453125 445.46484375 C-149.08228821 441.0810878 -144.0153861 436.42197195 -138.95703125 431.6953125 C-136.1981939 429.11787815 -133.39296285 426.59740755 -130.5703125 424.08984375 C-124.56612284 418.69872369 -118.82964374 413.11229902 -113.53515625 407.01953125 C-109.81234731 402.73907271 -105.96387467 398.58992271 -102.0703125 394.46484375 C-101.37365479 393.72500244 -100.67699707 392.98516113 -99.95922852 392.22290039 C-95.10801663 387.09003769 -90.15281493 382.08489823 -85.1328125 377.1171875 C-82.50242634 374.4556988 -80.03954045 371.69462073 -77.61328125 368.84765625 C-75.48884426 366.39460265 -73.27842613 364.03031228 -71.0703125 361.65234375 C-66.78022159 356.95274417 -62.82186235 352.06977059 -58.92675781 347.04052734 C-55.96551357 343.21966787 -52.93360385 339.47684027 -49.8203125 335.77734375 C-45.72516158 330.90340026 -41.76975777 325.93854335 -37.85766602 320.91796875 C-35.04923917 317.31968737 -32.18185478 313.78310571 -29.2578125 310.27734375 C-24.5428958 304.55208775 -20.28671014 298.53976128 -16.02246094 292.47753906 C-14.16605356 289.85202709 -12.27530171 287.25191684 -10.3828125 284.65234375 C-9.76535156 283.80414062 -9.14789062 282.9559375 -8.51171875 282.08203125 C-7.41380434 280.58602778 -6.28094437 279.11483221 -5.109375 277.67578125 C-3.30869713 275.02387385 -3.60716168 272.90355585 -3.8203125 269.77734375 C-5.29807449 269.02457982 -6.7776233 268.27532368 -8.2578125 267.52734375 C-9.08152344 267.1096875 -9.90523437 266.69203125 -10.75390625 266.26171875 C-11.76582031 265.771875 -12.77773438 265.28203125 -13.8203125 264.77734375 C-14.40127686 264.46812988 -14.98224121 264.15891602 -15.58081055 263.84033203 C-23.19955452 260.05342475 -31.47792641 258.75781765 -39.7578125 257.15234375 C-41.27037494 256.85122652 -42.7827466 256.54914929 -44.29492188 256.24609375 C-47.18968175 255.66713386 -50.08596352 255.09707925 -52.98388672 254.53417969 C-56.12780676 253.91395873 -59.25577381 253.2475409 -62.38671875 252.56640625 C-70.47337222 250.97223909 -70.47337222 250.97223909 -78.0234375 253.796875 C-79.05702913 254.70787669 -80.07215997 255.64014523 -81.0703125 256.58984375 C-81.89438599 257.32775146 -81.89438599 257.32775146 -82.73510742 258.08056641 C-84.4506008 259.62546773 -86.13785359 261.19658535 -87.8203125 262.77734375 C-89.92219862 264.73813832 -92.02609986 266.69673558 -94.1328125 268.65234375 C-94.62813477 269.11342529 -95.12345703 269.57450684 -95.63378906 270.04956055 C-102.54107667 276.39282249 -108.88401431 280.26931909 -118.38671875 280.11328125 C-125.52256373 279.12823684 -130.49498132 274.51149533 -134.99609375 269.22558594 C-138.43116024 264.6154619 -140.93097544 259.52545041 -143.5078125 254.40234375 C-144.06275391 253.32984375 -144.61769531 252.25734375 -145.18945312 251.15234375 C-155.89882353 230.21749839 -155.89882353 230.21749839 -153.8203125 219.77734375 C-151.2578125 217.27734375 -151.2578125 217.27734375 -147.8203125 215.77734375 C-141.27789949 212.56920155 -136.719209 208.08124564 -131.6328125 202.91796875 C-130.34080933 201.62315582 -130.34080933 201.62315582 -129.02270508 200.30218506 C-127.20724986 198.48002695 -125.39538625 196.65428421 -123.58691406 194.82519531 C-120.83646272 192.04367639 -118.07557135 189.2728837 -115.3125 186.50390625 C-113.54364839 184.72587943 -111.77539931 182.94725295 -110.0078125 181.16796875 C-109.19094971 180.34685608 -108.37408691 179.52574341 -107.5324707 178.67974854 C-102.77331892 173.86180375 -98.21804207 168.92661259 -93.8203125 163.77734375 C-92.81174719 162.61280532 -91.80271435 161.44867143 -90.79296875 160.28515625 C-75.31209765 142.32473297 -61.01544269 123.47979878 -47.8203125 103.77734375 C-47.37816406 103.11831055 -46.93601562 102.45927734 -46.48046875 101.78027344 C-44.31914792 98.55552011 -42.16689883 95.3251714 -40.02734375 92.0859375 C-38.75947014 90.1852491 -37.47486562 88.29500649 -36.14453125 86.4375 C-31.39643369 79.76968645 -28.19791931 72.38126743 -24.82275391 64.95849609 C-23.86876917 62.88277772 -22.88848618 60.82245314 -21.89453125 58.765625 C-14.933013 44.3118898 -11.73376222 31.73422248 -11.30273438 15.74414062 C-11.26857422 14.79474609 -11.23441406 13.84535156 -11.19921875 12.8671875 C-11.1741626 12.00988037 -11.14910645 11.15257324 -11.12329102 10.26928711 C-10.67095043 6.54886782 -9.64710903 3.69600656 -7.1328125 0.90234375 C-4.55344769 -0.35248237 -2.81761558 -0.5381283 0 0 Z " fill="#313E4D" transform="translate(541.8203125,228.22265625)"/>
<path d="M0 0 C4.5148106 0.13877492 8.9371395 0.88596954 13.38671875 1.625 C16.13883683 2.07755796 18.88292581 2.4922149 21.64453125 2.875 C30.63731466 4.1691365 38.05478743 6.04727201 46.1875 10.25 C52.06523894 12.89338531 57.94004978 15.24292755 64.125 17.0625 C71.90745246 19.36737501 79.41892628 22.31642726 86.98046875 25.25 C90.11415746 26.46443992 93.25279904 27.64238502 96.42578125 28.75 C116.68571243 35.86346461 133.56945112 46.52829132 149.1875 61.25 C149.83589844 61.84554687 150.48429688 62.44109375 151.15234375 63.0546875 C155.5326915 67.21458011 159.45208298 71.82926518 162.1875 77.25 C162.1875 78.57 162.1875 79.89 162.1875 81.25 C162.8475 81.25 163.5075 81.25 164.1875 81.25 C169.40306693 96.8967008 166.53265028 114.60520832 159.765625 129.34765625 C156.06285364 135.94695036 151.66889935 141.80942096 144.5625 144.75 C134.73205336 146.44556153 125.47060446 144.7339864 117.1875 139.25 C112.52535464 135.88484244 108.91895594 132.00668412 105.375 127.5 C100.83365253 121.78361857 95.7891393 116.65570846 90.625 111.5 C89.82151123 110.69594727 89.01802246 109.89189453 88.19018555 109.06347656 C81.44848315 102.38190006 74.48894225 96.12571371 66.9375 90.375 C66.38376709 89.95210693 65.83003418 89.52921387 65.25952148 89.09350586 C61.60716649 86.30969553 57.93031965 83.55922722 54.25 80.8125 C32.34307466 64.40401035 10.09218601 45.82840368 0.1875 19.25 C0.1875 17.93 0.1875 16.61 0.1875 15.25 C-0.4725 15.25 -1.1325 15.25 -1.8125 15.25 C-5.42006076 6.38141314 -5.42006076 6.38141314 -4.8125 2.25 C-2.8125 0.25 -2.8125 0.25 0 0 Z " fill="#333F4E" transform="translate(534.8125,800.75)"/>
<path d="M0 0 C5.04142295 0.5791569 9.90963513 1.37033361 14.875 2.4375 C21.98103043 3.8783975 29.0208838 4.3825174 36.25 4.8125 C68.18621847 6.88022847 99.98253747 15.42642884 125 36 C125.56847656 36.45777832 126.13695312 36.91555664 126.72265625 37.38720703 C137.65471203 46.2149011 150.08642959 56.51308049 153 71 C153.88444542 81.64736214 151.82920959 91.56511315 145 100 C139.20562895 104.57450346 132.17722605 105.31812001 125 105.1875 C123.99066406 105.1865332 123.99066406 105.1865332 122.9609375 105.18554688 C109.3196435 105.06704143 97.19623935 100.84510686 86.52734375 92.26953125 C77.45741934 85.01407398 70.48780942 82.33150935 59 81 C58.01 80.505 58.01 80.505 57 80 C57.25 78.1875 57.25 78.1875 58 76 C58.680625 75.566875 59.36125 75.13375 60.0625 74.6875 C62.32583751 73.06466435 62.32583751 73.06466435 62.625 69.8125 C60.73809189 58.30236056 47.45070381 49.19718275 39 42 C37.9475354 41.09549552 36.8954864 40.19050735 35.84375 39.28515625 C31.06576313 35.17667908 26.28729782 31.0697124 21.453125 27.02734375 C0.47656729 9.47973252 0.47656729 9.47973252 -0.3125 2.0625 C-0.209375 1.381875 -0.10625 0.70125 0 0 Z " fill="#333F4F" transform="translate(531,641)"/>
<path d="M0 0 C0.99 0.33 1.98 0.66 3 1 C1.78425776 2.63506773 0.55180487 4.2577186 -0.6875 5.875 C-1.37199219 6.77992188 -2.05648438 7.68484375 -2.76171875 8.6171875 C-5.09918116 11.10558552 -6.77089231 12.01599871 -10 13 C-6.73279209 8.61105071 -3.45101522 4.24740335 0 0 Z " fill="#434F5D" transform="translate(508,544)"/>
<path d="M0 0 C0.66 0.33 1.32 0.66 2 1 C1.38125 1.2475 0.7625 1.495 0.125 1.75 C-2.14291141 2.81460222 -2.14291141 2.81460222 -2.9375 5 C-4 7 -4 7 -6.4375 8.3125 C-9 9 -9 9 -12 8 C-8.04 5.36 -4.08 2.72 0 0 Z " fill="#46515E" transform="translate(344,706)"/>
<path d="M0 0 C0.66 0.33 1.32 0.66 2 1 C1.67 1.99 1.34 2.98 1 4 C-3.0916861 5.80795432 -6.55719328 6.21156222 -11 6 C-8.66460191 4.44306794 -6.42031244 3.09799354 -3.9375 1.8125 C-2.89916016 1.26529297 -2.89916016 1.26529297 -1.83984375 0.70703125 C-1.23269531 0.47371094 -0.62554687 0.24039063 0 0 Z " fill="#54606D" transform="translate(301,731)"/>
<path d="M0 0 C0.99 0.33 1.98 0.66 3 1 C2.01 1.495 2.01 1.495 1 2 C0.02846337 3.78115049 -0.94303744 5.56232057 -1.9140625 7.34375 C-3.27950688 9.42629826 -4.6438324 10.24266041 -7 11 C-5.5140084 6.40693504 -3.14985318 3.56430755 0 0 Z " fill="#3A4553" transform="translate(536,507)"/>
<path d="M0 0 C3.8063457 0.67170806 7.35206816 1.72746564 11 3 C11 3.33 11 3.66 11 4 C8.89521396 3.88590318 6.79115423 3.75834639 4.6875 3.625 C3.51574219 3.55539062 2.34398437 3.48578125 1.13671875 3.4140625 C-2 3 -2 3 -5 1 C-3.35 1 -1.7 1 0 1 C0 0.67 0 0.34 0 0 Z " fill="#606975" transform="translate(664,942)"/>
<path d="M0 0 C4.23429756 1.31061591 8.07407404 2.94356259 12 5 C11.67 5.66 11.34 6.32 11 7 C9.68 6.67 8.36 6.34 7 6 C7 5.34 7 4.68 7 4 C6.01 4 5.02 4 4 4 C4 3.34 4 2.68 4 2 C3.01 2.33 2.02 2.66 1 3 C0.67 2.01 0.34 1.02 0 0 Z " fill="#434D5B" transform="translate(707,295)"/>
<path d="M0 0 C0.33 0.99 0.66 1.98 1 3 C-0.98 3.99 -2.96 4.98 -5 6 C-5.66 5.34 -6.32 4.68 -7 4 C-4.69 2.68 -2.38 1.36 0 0 Z " fill="#455261" transform="translate(619,326)"/>
<path d="M0 0 C2.475 0.495 2.475 0.495 5 1 C5.33 1.99 5.66 2.98 6 4 C5.01 4.99 4.02 5.98 3 7 C2.814375 5.824375 2.814375 5.824375 2.625 4.625 C2.20882007 1.85942178 2.20882007 1.85942178 0 0 Z " fill="#4A5768" transform="translate(277,720)"/>
</svg>
